<svg width="512" height="512" viewBox="0 0 512 512" fill="none" xmlns="http://www.w3.org/2000/svg">
<path d="M249.307 200.507C249.542 200.502 249.776 200.5 250.011 200.502C252.082 200.526 253.767 201.435 255.164 202.945C258.607 206.666 260.323 212.571 260.194 217.562C260.185 217.927 260.168 218.291 260.141 218.655C260.114 219.019 260.078 219.382 260.033 219.744C259.988 220.107 259.933 220.468 259.87 220.827C259.807 221.186 259.735 221.544 259.654 221.9C259.573 222.256 259.484 222.61 259.385 222.961C259.286 223.312 259.179 223.661 259.063 224.007C258.947 224.353 258.823 224.696 258.69 225.036C258.557 225.375 258.415 225.712 258.265 226.045C258.115 226.378 257.957 226.706 257.791 227.031C257.624 227.356 257.45 227.676 257.268 227.993C257.085 228.309 256.895 228.62 256.698 228.927C256.5 229.234 256.294 229.535 256.081 229.831C255.868 230.128 255.648 230.419 255.421 230.704C255.194 230.989 254.959 231.269 254.718 231.543C254.476 231.817 254.228 232.085 253.973 232.346C253.718 232.607 253.457 232.862 253.19 233.11C252.914 233.371 252.632 233.625 252.343 233.872C252.055 234.119 251.761 234.358 251.46 234.59C251.159 234.822 250.853 235.046 250.541 235.263C250.23 235.48 249.913 235.688 249.59 235.889C249.268 236.09 248.941 236.282 248.609 236.467C248.277 236.651 247.941 236.827 247.6 236.994C247.259 237.162 246.915 237.321 246.566 237.471C246.217 237.621 245.865 237.762 245.51 237.895C245.154 238.028 244.795 238.151 244.433 238.266C244.071 238.381 243.706 238.486 243.339 238.583C242.972 238.679 242.603 238.766 242.231 238.844C241.86 238.921 241.486 238.99 241.111 239.049C240.736 239.108 240.36 239.158 239.982 239.198C239.605 239.238 239.226 239.269 238.847 239.29C238.468 239.311 238.089 239.323 237.709 239.326C237.33 239.328 236.95 239.321 236.571 239.304C229.932 239.009 224.387 236.064 219.933 231.23C217.738 228.414 216.438 225.422 215.691 221.95C215.798 221.466 215.905 220.976 216.058 220.504C216.564 218.949 217.955 217.557 219.433 216.897C225.036 214.395 226.588 221.352 229.225 224.384C230.428 225.767 232.055 226.797 233.76 227.454C236.416 228.477 240.038 228.155 242.578 226.958C245.151 225.745 247.518 223.61 248.459 220.87C250.297 215.517 247.862 212.755 245.856 208.251C245.182 206.738 244.919 205.411 245.565 203.83C246.273 202.099 247.635 201.181 249.307 200.507Z" fill="black"/>
<path d="M170.733 172.337C173.9 171.947 177.335 172.363 180.326 173.465C187.327 176.045 193.398 182.441 196.443 189.168C197.348 191.166 197.717 193.374 196.84 195.455C196.37 196.572 195.615 197.415 194.472 197.858C192.534 198.608 189.679 198.317 188.114 196.882C187.029 195.887 186.316 194.591 185.557 193.348C183.284 189.625 180.917 186.112 176.723 184.369C174.279 183.354 171.777 183.125 169.331 184.242C166.441 185.563 164.708 187.97 163.614 190.854C162.602 195.673 164.163 199.487 166.76 203.426C167.639 204.761 168.66 206.126 169.106 207.679C169.504 209.067 169.471 210.632 168.696 211.888C167.532 213.776 165.342 214.406 163.315 214.852C162.209 214.57 161.182 214.287 160.256 213.586C156.061 210.411 153.263 203.23 152.541 198.177C151.671 192.077 153.135 184.978 156.898 180.026C160.333 175.506 165.188 173.086 170.733 172.337Z" fill="black"/>
<path d="M248.896 132.604C252.643 132.29 256.727 133.436 260.05 135.102C266.182 138.178 273.056 145.483 275.067 152.108C275.577 153.786 275.666 155.595 274.748 157.153C273.654 159.011 271.885 159.613 269.913 160.062C268.74 159.786 267.508 159.548 266.521 158.812C263.477 156.542 262.555 149.768 256.639 145.949C254.101 144.311 250.679 143.499 247.71 144.264C244.765 145.022 242.859 147.187 241.331 149.673C239.009 155 240.894 159.407 243.658 164.039C244.592 165.604 245.603 167.155 245.873 168.998C246.063 170.291 245.88 171.69 245.041 172.734C244.085 173.922 242.397 174.736 240.893 174.889C239.362 175.045 237.915 174.489 236.755 173.502C232.681 170.037 229.734 161.889 229.265 156.645C229.232 156.26 229.208 155.874 229.193 155.487C229.179 155.1 229.174 154.714 229.179 154.327C229.184 153.94 229.199 153.553 229.223 153.167C229.247 152.781 229.281 152.396 229.324 152.011C229.367 151.626 229.419 151.243 229.482 150.862C229.544 150.48 229.615 150.1 229.696 149.721C229.777 149.343 229.868 148.967 229.967 148.593C230.066 148.219 230.175 147.848 230.293 147.479C230.411 147.111 230.538 146.746 230.674 146.383C230.811 146.021 230.956 145.663 231.109 145.308C231.263 144.953 231.426 144.602 231.597 144.255C231.768 143.908 231.948 143.565 232.136 143.227C232.324 142.889 232.521 142.556 232.726 142.228C232.931 141.899 233.143 141.576 233.364 141.259C233.585 140.941 233.813 140.629 234.049 140.322C234.285 140.016 234.529 139.716 234.78 139.421C238.437 135.066 243.331 133.125 248.896 132.604Z" fill="black"/>
<path d="M149.662 61.1007C158.591 60.1487 167.951 62.8354 175.232 67.989C188.511 77.3883 194.658 93.6439 197.261 109.138C198.261 115.094 200.377 130.129 196.789 134.922C195.558 136.567 193.301 137.781 191.276 138.047C188.212 138.449 185.504 136.442 183.953 133.943C182.087 130.934 181.515 127.008 180.485 123.639C178.635 117.754 176.693 111.899 174.658 106.075C173.224 101.975 171.935 97.6458 169.78 93.859C168.126 90.9534 165.915 88.2057 163.198 86.2294C159.872 83.8103 155.773 82.6173 151.684 83.2692L151.306 83.3312L151.063 83.3819C146.617 84.3523 142.823 86.8833 140.399 90.7608C138.664 93.5343 137.896 96.7346 137.965 99.9908C138.267 114.194 152.063 116.619 153.423 123.302C153.618 124.257 153.599 125.171 153.195 126.069C151.951 128.835 146.604 133.852 144.412 137.141C141.092 135.694 138.038 133.711 135.225 131.438C125.699 123.74 117.799 113.512 116.552 100.985C115.597 91.3958 118.276 81.7628 124.443 74.306C130.895 66.5051 139.63 62.0302 149.662 61.1007Z" fill="black"/>
<path d="M104.961 121.118C105.419 121.323 111.772 131.187 112.955 132.599C119.013 139.833 127.108 147.387 135.632 151.64C134.942 153.06 134.327 154.52 133.706 155.971C123.42 180.023 122.284 207.613 132.058 231.989C134.489 232.634 137.685 233.005 139.349 235.088C139.456 235.223 139.557 235.362 139.65 235.507C139.743 235.651 139.829 235.8 139.908 235.953C139.986 236.106 140.056 236.263 140.119 236.424C140.182 236.584 140.236 236.747 140.282 236.913C140.329 237.078 140.367 237.246 140.396 237.416C140.425 237.585 140.446 237.756 140.458 237.928C140.47 238.099 140.474 238.271 140.469 238.443C140.464 238.615 140.45 238.786 140.428 238.957C140.407 239.142 140.376 239.325 140.335 239.507C140.294 239.689 140.244 239.868 140.185 240.044C140.126 240.221 140.059 240.394 139.982 240.564C139.905 240.733 139.819 240.898 139.726 241.059C139.632 241.22 139.53 241.375 139.42 241.526C139.31 241.676 139.193 241.82 139.068 241.958C138.943 242.097 138.812 242.228 138.673 242.353C138.535 242.477 138.391 242.594 138.24 242.704C135.52 244.685 131.343 243.103 128.319 242.6C122.959 241.852 117.427 241.906 112.058 242.494C109.919 242.728 107.753 242.989 105.637 243.382C103.293 243.818 98.4494 245.753 96.2955 245.27C95.4251 245.074 94.566 244.55 94.149 243.742C93.6282 242.732 93.8525 241.537 94.1996 240.515C94.7955 238.762 95.7753 238.035 97.3774 237.207C95.5088 231.902 93.9021 226.519 92.5574 221.058C84.5287 188.268 87.1838 150.442 104.961 121.118Z" fill="black"/>
<path d="M217.679 56.8608C225.635 56.2448 234.446 57.1513 242.309 58.3809C244.189 58.6936 246.062 59.0439 247.927 59.4319C249.793 59.82 251.65 60.2454 253.499 60.7082C255.347 61.171 257.185 61.6708 259.014 62.2076C260.843 62.7444 262.66 63.3178 264.465 63.9277C266.27 64.5376 268.063 65.1837 269.842 65.8658C271.621 66.5479 273.386 67.2656 275.136 68.0187C276.887 68.7719 278.621 69.56 280.34 70.3829C282.059 71.2059 283.76 72.0632 285.444 72.9547C287.129 73.8462 288.794 74.7712 290.441 75.7297C292.088 76.6882 293.715 77.6795 295.322 78.7036C296.929 79.7277 298.515 80.7836 300.08 81.8715C301.644 82.9594 303.186 84.0783 304.706 85.2283C306.225 86.3782 307.721 87.5583 309.193 88.7685C310.665 89.9787 312.112 91.218 313.534 92.4864C314.956 93.7549 316.352 95.0514 317.722 96.376C319.092 97.7007 320.435 99.0523 321.75 100.431C328.203 107.293 333.676 114.971 339.215 122.568C340.802 122.104 342.066 121.778 343.621 122.519C344.322 122.853 344.956 123.363 345.17 124.144C345.628 125.81 343.493 127.555 342.225 128.214C339.434 129.667 336.177 130.526 333.28 131.81C322.566 136.557 314.638 143.121 307.783 152.59C307.657 152.737 307.529 152.881 307.398 153.024C306.278 154.244 304.921 154.926 303.243 154.939C301.72 154.95 300.245 154.381 299.186 153.272C298.138 152.175 297.704 150.684 297.811 149.187C298.096 145.186 304.933 137.775 307.983 135.165C303.897 130.853 300.12 126.425 295.437 122.724C271.578 103.871 243.179 96.8547 213.182 100.33C208.741 84.2787 203.989 72.7226 192.324 60.4222C200.72 58.322 209.052 57.2768 217.679 56.8608Z" fill="black"/>
<path d="M325.377 347.295C326.733 347.198 327.816 347.265 329.028 347.956C330.414 348.747 331.466 350.025 331.847 351.587C332.259 353.274 331.871 354.531 331.155 356.056C329.285 360.042 326.647 363.909 324.35 367.672L313.96 384.893L274.595 449.793C260.642 446.158 248.111 438.119 237.175 428.961C229.646 422.432 225.027 416.244 218.991 408.508C215.869 404.507 212.612 400.608 209.638 396.494C210.83 393.869 212.586 391.371 214.054 388.885C216.476 384.787 218.811 379.949 221.903 376.341C228.408 373.807 235.61 372.301 242.344 370.439L274.494 361.41L306.328 352.465C312.638 350.68 318.976 348.715 325.377 347.295Z" fill="black"/>
<path d="M117.194 279.013C123.699 278.932 130.272 279.355 136.776 279.564C153.087 280.13 169.393 280.827 185.694 281.654L228.213 283.479C234.384 283.735 240.613 283.7 246.769 284.163C247.817 284.242 248.828 284.436 249.779 284.906C251.149 285.583 252.115 286.761 252.52 288.235C252.945 289.778 252.825 291.137 252.192 292.597C251.209 294.867 249.677 296.984 248.374 299.084L242.301 309.032C234.355 321.925 226.497 334.872 218.727 347.873L205.394 369.646C202.899 373.748 200.532 377.985 197.831 381.954C193.754 376.915 189.992 371.656 185.974 366.576L139.941 308.153C132.345 298.451 124.907 288.626 117.194 279.013Z" fill="black"/>
<path d="M419.184 321.048C419.829 320.989 419.829 320.944 420.343 321.326C421.031 323.048 421.147 325.122 421.408 326.954C421.773 329.375 422.059 331.804 422.267 334.243C422.475 336.682 422.604 339.126 422.655 341.573C422.705 344.02 422.677 346.467 422.57 348.912C422.463 351.358 422.277 353.798 422.012 356.231C419.211 379.947 408.165 403.508 391.586 420.721C387.668 424.789 383.256 428.423 378.82 431.906C356.671 449.294 325.648 457.928 297.699 454.589C295.889 454.487 294.048 454.13 292.249 453.886C293.67 451.822 294.852 449.522 296.144 447.369C299.937 441.052 303.527 434.616 307.345 428.316L345.455 365.085C348.466 360.082 351.496 355.073 354.435 350.028C356.199 346.999 357.83 343.869 359.715 340.913C360.446 339.766 361.257 338.345 362.489 337.705C366.799 335.469 375.018 333.701 379.945 332.226C387.944 329.819 395.959 327.461 403.988 325.154C409.018 323.71 414.072 322.177 419.184 321.048Z" fill="black"/>
<path d="M355.082 155.136C355.754 155.54 355.962 156.158 356.294 156.852C358.839 162.171 360.984 167.762 363.246 173.208L375.653 203.389L406.95 280.436C410.059 288.277 412.606 296.448 415.921 304.189L291.685 339.344C282.182 341.861 272.707 344.477 263.26 347.193C257.943 348.672 252.362 350.697 246.872 351.181C246.046 350.865 245.224 350.509 244.506 349.985C243.26 349.075 242.38 347.665 242.163 346.136C241.882 344.158 242.572 342.338 243.49 340.619C245.232 337.355 247.428 334.255 249.327 331.072L262.738 308.578L301.411 243.937C312.888 224.458 324.5 205.06 336.248 185.743C340.447 178.775 344.593 171.788 348.885 164.876C350.908 161.617 352.854 158.26 355.082 155.136Z" fill="black"/>
</svg>
